# 3ds Max Wavefront OBJ Exporter v0.97b - (c)2007 guruware
# File Created: 12.04.2018 01:18:28

mtllib building01.mtl

#
# object floor00000
#

v  7.605157 -7.656726 0.145813
v  7.605157 7.656727 0.145813
v  -7.605160 7.656727 0.145813
v  -7.605160 -7.656726 0.145813
# 4 vertices

vn 0.000000 0.000000 1.000000
# 1 vertex normals

vt 100.499985 0.000000 0.500000
vt 100.500000 1.999997 0.500000
vt -99.499985 1.999998 0.500000
vt -99.500000 0.000002 0.500000
# 4 texture coords

o floor00000
g floor00000
usemtl floor
s 4
f 1/1/1 2/2/1 3/3/1 4/4/1 
# 1 polygons

#
# object wall_front
#

v  7.654750 -7.720081 -0.000009
v  7.654750 -0.000463 -0.000009
v  7.654750 -0.000463 15.056714
v  7.654750 -7.720080 15.056717
v  7.654750 7.684112 -0.000009
v  7.654750 7.684114 15.056717
# 6 vertices

vn 1.000000 0.000000 0.000000
# 1 vertex normals

vt 3.032679 0.258646 0.500000
vt 0.499996 0.258646 0.500000
vt 0.499997 0.340977 0.500000
vt 3.032680 0.340977 0.500000
vt -2.021190 0.258646 0.500000
vt -2.021190 0.340978 0.500000
# 6 texture coords

o wall_front
g wall_front
usemtl wall_mtl01
s 16
f 5/5/2 6/6/2 7/7/2 8/8/2 
f 6/6/2 9/9/2 10/10/2 7/7/2 
# 2 polygons

#
# object wall_back
#

v  -7.644543 7.684114 -0.000009
v  -7.644543 -0.000463 -0.000009
v  -7.644543 -0.000463 15.056717
v  -7.644543 7.684116 15.056717
v  -7.644543 -7.720082 -0.000009
v  -7.644543 -7.720081 15.056717
# 6 vertices

vn -1.000000 0.000000 0.000000
# 1 vertex normals

vt -16.343204 0.258646 0.500000
vt -13.822018 0.258646 0.500000
vt -13.822018 0.340978 0.500000
vt -16.343204 0.340977 0.500000
vt -11.289334 0.258646 0.500000
vt -11.289335 0.340978 0.500000
# 6 texture coords

o wall_back
g wall_back
usemtl wall_mtl01
s 64
f 11/11/3 12/12/3 13/13/3 14/14/3 
f 12/12/3 15/15/3 16/16/3 13/13/3 
# 2 polygons

#
# object wall_right
#

v  -7.645404 7.684115 0.000000
v  -7.645404 7.684115 15.056720
v  7.653645 7.684115 15.056720
v  7.653645 7.684115 0.000000
# 4 vertices

vn 0.000000 1.000000 0.000000
# 1 vertex normals

vt -2.010018 0.000000 547424.500000
vt -2.010018 0.205828 547424.500000
vt 3.009355 0.205828 547424.500000
vt 3.009355 0.000000 547424.500000
# 4 texture coords

o wall_right
g wall_right
usemtl wall_mtl01
s 32
f 17/17/4 18/18/4 19/19/4 20/20/4 
# 1 polygons

#
# object wall_left
#

v  7.655363 -7.720083 0.000000
v  7.655363 -7.720083 15.056720
v  -7.643135 -7.720083 15.056720
v  -7.643135 -7.720083 0.000000
# 4 vertices

vn 0.000000 -1.000000 0.000000
# 1 vertex normals

vt 3.009931 -0.000000 -548061.437500
vt 3.009931 0.205828 -548061.437500
vt -2.009260 0.205828 -548061.500000
vt -2.009260 -0.000000 -548061.500000
# 4 texture coords

o wall_left
g wall_left
usemtl wall_mtl01
s 8
f 21/21/5 22/22/5 23/23/5 24/24/5 
# 1 polygons

#
# object roof_left
#

v  -7.644543 -7.720074 15.056717
v  7.654750 -7.720080 15.056717
v  7.654749 -0.000004 15.056661
v  -7.644543 -0.000004 15.056663
# 4 vertices

vn 0.000000 0.000007 1.000000
# 1 vertex normals

vt 3.009721 0.915581 -3.840878
vt -2.009741 0.915581 -3.840878
vt -2.009737 1.000003 -3.710556
vt 3.009708 1.000003 -3.710556
# 4 texture coords

o roof_left
g roof_left
usemtl wall_mtl01
s 4
f 25/25/6 26/26/6 27/27/6 28/28/6 
# 1 polygons

#
# object roof_right
#

v  7.654750 7.684116 15.056717
v  -7.644543 7.684116 15.056717
v  -7.644543 -0.000004 15.056663
v  7.654749 -0.000004 15.056661
# 4 vertices

vn 0.000000 -0.000007 1.000000
# 1 vertex normals

vt -2.009851 0.915960 -3.840878
vt 3.009660 0.915960 -3.840878
vt 3.009652 0.999999 -3.710556
vt -2.009851 0.999999 -3.710556
# 4 texture coords

o roof_right
g roof_right
usemtl wall_mtl01
s 4
f 29/29/7 30/30/7 31/31/7 32/32/7 
# 1 polygons

