<?xml version="1.0" encoding="UTF-8" standalone="no"?>
<!-- Created with Inkscape (http://www.inkscape.org/) -->
<svg
   xmlns:dc="http://purl.org/dc/elements/1.1/"
   xmlns:cc="http://creativecommons.org/ns#"
   xmlns:rdf="http://www.w3.org/1999/02/22-rdf-syntax-ns#"
   xmlns:svg="http://www.w3.org/2000/svg"
   xmlns="http://www.w3.org/2000/svg"
   xmlns:sodipodi="http://sodipodi.sourceforge.net/DTD/sodipodi-0.dtd"
   xmlns:inkscape="http://www.inkscape.org/namespaces/inkscape"
   width="329.69211"
   height="929.2063"
   id="svg3610"
   sodipodi:version="0.32"
   inkscape:version="0.46"
   version="1.0"
   sodipodi:docname="rejon_Person_Outline_1.svg"
   inkscape:output_extension="org.inkscape.output.svg.inkscape">
  <title
     id="title3635">Person Outline</title>
  <defs
     id="defs3612">
    <inkscape:perspective
       sodipodi:type="inkscape:persp3d"
       inkscape:vp_x="0 : 526.18109 : 1"
       inkscape:vp_y="0 : 1000 : 0"
       inkscape:vp_z="744.09448 : 526.18109 : 1"
       inkscape:persp3d-origin="372.04724 : 350.78739 : 1"
       id="perspective3618" />
    <inkscape:perspective
       id="perspective3602"
       inkscape:persp3d-origin="0.5 : 0.33333333 : 1"
       inkscape:vp_z="1 : 0.5 : 1"
       inkscape:vp_y="0 : 1000 : 0"
       inkscape:vp_x="0 : 0.5 : 1"
       sodipodi:type="inkscape:persp3d" />
  </defs>
  <sodipodi:namedview
     id="base"
     pagecolor="#ffffff"
     bordercolor="#666666"
     borderopacity="1.0"
     inkscape:pageopacity="0.0"
     inkscape:pageshadow="2"
     inkscape:zoom="0.35"
     inkscape:cx="743.57143"
     inkscape:cy="508.57143"
     inkscape:document-units="px"
     inkscape:current-layer="layer1"
     showgrid="false"
     showguides="true"
     inkscape:guide-bbox="true"
     inkscape:window-width="778"
     inkscape:window-height="716"
     inkscape:window-x="66"
     inkscape:window-y="50" />
  <metadata
     id="metadata3615">
    <rdf:RDF>
      <cc:Work
         rdf:about="">
        <dc:format>image/svg+xml</dc:format>
        <dc:type
           rdf:resource="http://purl.org/dc/dcmitype/StillImage" />
        <dc:title>Person Outline</dc:title>
        <dc:contributor>
          <cc:Agent>
            <dc:title>Fabricatorz, Lu Fang, Jon Phillips</dc:title>
          </cc:Agent>
        </dc:contributor>
        <cc:license
           rdf:resource="http://creativecommons.org/licenses/publicdomain/" />
      </cc:Work>
      <cc:License
         rdf:about="http://creativecommons.org/licenses/publicdomain/">
        <cc:permits
           rdf:resource="http://creativecommons.org/ns#Reproduction" />
        <cc:permits
           rdf:resource="http://creativecommons.org/ns#Distribution" />
        <cc:permits
           rdf:resource="http://creativecommons.org/ns#DerivativeWorks" />
      </cc:License>
    </rdf:RDF>
  </metadata>
  <g
     inkscape:label="Layer 1"
     inkscape:groupmode="layer"
     id="layer1"
     transform="translate(-213.3883,-39.4116)">
    <path
       d="M 490.89753,500.67834 C 490.89753,500.67834 488.40299,509.79467 488.40299,509.79467 C 488.40299,509.79467 483.44426,518.90081 483.44426,518.90081 C 483.44426,518.90081 481.83669,522.11089 480.62222,524.53483 C 479.88671,526.00124 479.29685,527.17547 479.29685,527.17547 C 479.29685,527.17547 481.78635,511.44742 481.78635,511.44742 C 481.78635,511.44742 482.60818,513.92697 482.60818,496.541 C 482.60818,479.15012 483.44462,443.54169 483.44462,443.54169 C 483.44462,443.54169 480.12867,417.04466 480.12867,417.04466 C 480.12867,417.04466 480.12867,396.33774 480.12867,396.33774 C 480.12867,396.33774 493.38223,434.43554 493.38223,434.43554 C 493.38223,434.43554 494.20406,455.96388 494.20406,455.96388 C 494.20406,455.96388 490.89821,500.67834 490.89821,500.67834 L 490.89753,500.67834 z M 283.43093,462.24291 C 282.15087,468.4011 282.54406,469.3484 283.05308,472.21586 C 285.53743,486.29081 280.4879,499.02546 280.4879,499.02546 C 280.4879,499.02546 280.4879,512.27396 280.4879,512.27396 C 280.4879,512.27396 275.51405,507.30516 275.51405,507.30516 C 275.51405,507.30516 273.86622,497.37248 273.86622,497.37248 C 273.86622,497.37248 274.68246,472.52833 274.68246,472.52833 C 274.68246,472.52833 276.91487,436.54205 276.91487,436.54205 C 276.91487,436.54205 282.66482,456.87094 282.66482,456.87094 C 282.66482,456.87094 284.71078,456.11972 283.4306,462.24291 L 283.43093,462.24291 z M 543.0804,381.43132 C 543.0804,381.43132 538.94306,345.82791 538.94306,345.82791 C 538.94306,345.82791 523.20506,318.50435 534.80068,310.21973 C 546.39633,301.9399 543.0804,306.90871 535.627,296.14465 C 528.17374,285.38051 527.34227,268.81605 520.72047,250.59357 C 514.08858,232.38119 502.32175,229.73055 501.76732,228.34969 C 501.21344,226.96894 493.2054,217.02617 490.99821,214.25951 C 488.79093,211.49799 437.69651,181.6699 437.69651,181.6699 C 437.69651,181.6699 431.06981,180.56663 427.74881,179.46259 C 424.43792,178.35935 418.36035,173.94441 418.36035,173.94441 C 418.36035,173.94441 417.26159,174.76624 412.01081,172.83554 C 406.76482,170.90046 403.4489,166.20871 403.4489,166.20871 C 403.4489,166.20871 402.62257,144.66031 403.72583,140.80014 C 404.82908,136.93504 406.21027,130.03093 408.97179,129.47661 C 411.7334,128.92275 412.01057,120.64259 413.11933,114.55505 C 414.22257,108.48758 411.7334,106.00322 410.62982,106.00322 C 409.52657,106.00322 409.2439,104.06804 409.2439,104.06804 C 409.2439,104.06804 408.14066,97.713322 410.07584,94.951823 C 412.01102,92.19536 410.90217,77.550828 410.35278,71.755475 C 409.80338,65.955209 405.65609,64.846457 405.65609,64.846457 C 405.65609,64.846457 400.68726,57.393284 400.68726,57.393284 C 400.68726,57.393284 391.57608,49.108429 391.57608,49.108429 C 391.57608,49.108429 386.05296,44.688901 386.05296,44.688901 C 386.05296,44.688901 380.52478,41.095795 380.52478,41.095795 C 380.52478,41.095795 369.75557,39.165779 362.02514,39.437888 C 354.28957,39.719304 342.41678,48.554115 334.40424,56.012411 C 326.39664,63.465683 326.66865,75.343557 326.66865,75.343557 C 326.66865,75.343557 325.84234,89.151422 325.84234,89.151422 C 325.84234,89.151422 327.2232,96.332573 327.2232,96.332573 C 327.2232,96.332573 322.73796,108.99659 322.73796,108.99659 C 322.73796,108.99659 322.73796,120.59225 322.73796,120.59225 C 322.73796,120.59225 328.53847,121.41858 328.53847,121.41858 C 328.53847,121.41858 331.01777,130.52469 331.01777,130.52469 C 331.01777,130.52469 337.64461,147.08914 337.64461,147.08914 C 337.64461,147.08914 335.98671,174.40778 335.98671,174.40778 C 335.98671,174.40778 327.70688,176.06571 327.70688,176.06571 C 327.70688,176.06571 321.08005,181.03957 321.08005,181.03957 C 321.08005,181.03957 307.82649,190.97716 307.82649,190.97716 C 307.82649,190.97716 296.22591,200.08846 276.35058,210.85263 C 256.47007,221.61667 246.52237,236.52321 239.0691,260.5359 C 231.61078,284.55374 213.3883,302.7661 213.3883,302.7661 C 213.3883,302.7661 222.49948,308.56136 222.49948,308.56136 C 222.49948,308.56136 234.10028,320.15699 234.10028,320.15699 C 234.10028,320.15699 238.24254,364.87157 234.10028,374.81412 C 229.95792,384.74691 232.44225,407.10156 232.44225,438.57255 C 232.44225,470.04364 240.72208,475.83385 240.72208,475.83385 C 240.72208,475.83385 245.69581,522.21631 245.69581,522.21631 C 245.69581,522.21631 245.69581,555.33522 245.69581,555.33522 C 245.69581,555.33522 250.66966,576.86849 250.66966,576.86849 C 250.66966,576.86849 268.88711,590.1171 268.88711,590.1171 C 268.88711,590.1171 282.14582,600.88116 282.14582,600.88116 C 282.14582,600.88116 290.43046,685.34148 292.90997,737.51415 C 295.40443,789.68702 311.96887,860.89862 311.96887,860.89862 C 311.96887,860.89862 311.14255,861.73053 304.51055,865.04109 C 297.88382,868.35188 310.30591,876.63662 310.30591,876.63662 C 310.30591,876.63662 317.76423,886.57436 317.76423,886.57436 C 317.76423,886.57436 302.0262,897.3384 297.05728,902.30228 C 292.08849,907.27107 292.90997,910.58702 292.90997,910.58702 C 292.90997,910.58702 297.88382,914.71932 297.88382,914.71932 C 297.88382,914.71932 286.28819,927.97791 286.28819,927.97791 C 286.28819,927.97791 279.66135,943.70595 277.99829,951.1591 C 276.35058,958.61237 289.59908,967.7286 306.16858,968.55513 C 322.73796,969.37699 331.84421,961.92831 340.134,957.78592 C 348.41382,953.6486 349.24025,938.74206 349.24025,938.74206 C 349.24025,938.74206 351.72976,922.17762 351.72976,922.17762 C 351.72976,922.17762 364.98332,916.38731 364.98332,916.38731 C 364.98332,916.38731 374.92092,908.9291 374.92092,908.9291 C 374.92092,908.9291 377.41044,895.68048 377.41044,895.68048 C 377.41044,895.68048 377.41044,887.40077 377.41044,887.40077 C 377.41044,887.40077 384.85866,882.43197 384.85866,882.43197 C 384.85866,882.43197 388.1746,874.15227 388.1746,874.15227 C 388.1746,874.15227 383.20568,860.89862 383.20568,860.89862 C 383.20568,860.89862 379.0633,812.86821 379.0633,812.86821 C 379.0633,812.86821 377.41044,692.79463 377.41044,692.79463 C 377.41044,692.79463 381.5528,648.91166 381.5528,648.91166 C 381.5528,648.91166 386.51657,581.83237 386.51657,581.83237 C 386.51657,581.83237 390.65895,629.03127 390.65895,629.03127 C 390.65895,629.03127 398.94874,649.73811 398.94874,649.73811 C 398.94874,649.73811 406.39696,672.92432 406.39696,672.92432 C 406.39696,672.92432 413.02884,765.66931 408.88636,800.44612 C 404.7441,835.23295 414.68675,856.75623 414.68675,856.75623 C 414.68675,856.75623 417.16616,861.7302 417.16616,861.7302 C 417.16616,861.7302 418.82407,871.66277 418.82407,871.66277 C 418.82407,871.66277 422.96645,880.77394 422.96645,880.77394 C 422.96645,880.77394 435.38855,891.53811 435.38855,891.53811 C 435.38855,891.53811 431.25625,899.82286 431.25625,899.82286 C 431.25625,899.82286 440.36755,910.58702 440.36755,910.58702 C 440.36755,910.58702 446.16784,915.55584 446.16784,915.55584 C 446.16784,915.55584 448.6523,932.11523 448.6523,932.11523 C 448.6523,932.11523 461.07437,952.82218 461.07437,952.82218 C 461.07437,952.82218 469.35911,957.78592 485.92861,958.61237 C 502.49318,959.44431 507.46693,951.99059 507.46693,951.99059 C 507.46693,951.99059 515.74674,935.42612 515.74674,935.42612 C 515.74674,935.42612 507.46693,901.48089 507.46693,901.48089 C 507.46693,901.48089 499.18229,889.05869 499.18229,889.05869 C 499.18229,889.05869 485.92861,880.77394 485.92861,880.77394 C 485.92861,880.77394 490.89743,871.66277 490.89743,871.66277 C 490.89743,871.66277 490.89743,853.44535 490.89743,853.44535 C 490.89743,853.44535 484.27058,851.79246 484.27058,851.79246 C 484.27058,851.79246 488.40299,840.20187 488.40299,840.20187 C 488.40299,840.20187 490.89743,802.93553 490.89743,802.93553 C 490.89743,802.93553 484.27058,777.26484 487.58652,769.81166 C 490.89743,762.36344 485.92861,702.7373 488.40276,677.06671 C 490.89732,651.39097 477.64376,604.19709 477.64376,604.19709 C 477.64376,604.19709 519.88889,576.86849 519.88889,576.86849 C 519.88889,576.86849 538.94295,542.91315 538.94295,542.91315 C 538.94295,542.91315 536.45839,531.32255 536.45839,531.32255 C 536.45839,531.32255 530.6581,507.30483 530.6581,507.30483 C 530.6581,507.30483 539.76928,433.60878 539.76928,433.60878 C 539.76928,433.60878 543.08018,381.43096 543.08018,381.43096 L 543.0804,381.43132 z"
       style="fill:#ffffff;fill-opacity:1;fill-rule:nonzero;stroke:none"
       id="path3443" />
  </g>
</svg>
